<mxfile host="app.diagrams.net" modified="2022-10-13T08:40:19.369Z" agent="5.0 (Windows NT 10.0; Win64; x64) AppleWebKit/537.36 (KHTML, like Gecko) Chrome/106.0.0.0 Safari/537.36" etag="QEZ2zV4KiUlErn5FJD_3" version="20.4.0" type="github">
  <diagram id="R2lEEEUBdFMjLlhIrx00" name="Page-1">
    <mxGraphModel dx="1202" dy="518" grid="1" gridSize="10" guides="1" tooltips="1" connect="1" arrows="1" fold="1" page="1" pageScale="1" pageWidth="4681" pageHeight="3300" math="0" shadow="0" extFonts="Permanent Marker^https://fonts.googleapis.com/css?family=Permanent+Marker">
      <root>
        <mxCell id="0" />
        <mxCell id="1" parent="0" />
        <mxCell id="BBy9NSOws3LWDicbXZz5-68" value="&lt;span style=&quot;font-size: 14px;&quot;&gt;ysicil_kimlik&lt;/span&gt;" style="rounded=1;arcSize=10;whiteSpace=wrap;html=1;align=center;" parent="1" vertex="1">
          <mxGeometry x="560" y="348" width="205" height="50" as="geometry" />
        </mxCell>
        <mxCell id="BBy9NSOws3LWDicbXZz5-69" value="&lt;span style=&quot;text-align: left;&quot;&gt;dogumtarihi&lt;/span&gt;" style="ellipse;whiteSpace=wrap;html=1;align=center;" parent="1" vertex="1">
          <mxGeometry x="240" y="300" width="150" height="60" as="geometry" />
        </mxCell>
        <mxCell id="BBy9NSOws3LWDicbXZz5-70" value="&lt;span style=&quot;text-align: left;&quot;&gt;durum&lt;/span&gt;" style="ellipse;whiteSpace=wrap;html=1;align=center;" parent="1" vertex="1">
          <mxGeometry x="240" y="220" width="150" height="60" as="geometry" />
        </mxCell>
        <mxCell id="BBy9NSOws3LWDicbXZz5-71" value="&lt;span style=&quot;text-align: left;&quot;&gt;mukellefno&lt;/span&gt;" style="ellipse;whiteSpace=wrap;html=1;align=center;" parent="1" vertex="1">
          <mxGeometry x="240" y="140" width="150" height="60" as="geometry" />
        </mxCell>
        <mxCell id="BBy9NSOws3LWDicbXZz5-72" value="&lt;span style=&quot;text-align: left;&quot;&gt;dogumyeri&lt;/span&gt;" style="ellipse;whiteSpace=wrap;html=1;align=center;" parent="1" vertex="1">
          <mxGeometry x="240" y="380" width="150" height="60" as="geometry" />
        </mxCell>
        <mxCell id="BBy9NSOws3LWDicbXZz5-73" value="&lt;span style=&quot;text-align: left;&quot;&gt;potansiyel&lt;/span&gt;" style="ellipse;whiteSpace=wrap;html=1;align=center;" parent="1" vertex="1">
          <mxGeometry x="240" y="700" width="150" height="60" as="geometry" />
        </mxCell>
        <mxCell id="BBy9NSOws3LWDicbXZz5-76" value="" style="endArrow=none;html=1;rounded=0;exitX=1;exitY=0.5;exitDx=0;exitDy=0;entryX=0.124;entryY=0.562;entryDx=0;entryDy=0;entryPerimeter=0;" parent="1" source="BBy9NSOws3LWDicbXZz5-71" target="BBy9NSOws3LWDicbXZz5-88" edge="1">
          <mxGeometry relative="1" as="geometry">
            <mxPoint x="710" y="560" as="sourcePoint" />
            <mxPoint x="680" y="170" as="targetPoint" />
          </mxGeometry>
        </mxCell>
        <mxCell id="BBy9NSOws3LWDicbXZz5-78" value="" style="endArrow=none;html=1;rounded=0;exitX=1;exitY=0.5;exitDx=0;exitDy=0;entryX=0.25;entryY=0.5;entryDx=0;entryDy=0;entryPerimeter=0;" parent="1" source="BBy9NSOws3LWDicbXZz5-70" target="BBy9NSOws3LWDicbXZz5-88" edge="1">
          <mxGeometry relative="1" as="geometry">
            <mxPoint x="399.99999999999363" y="250.0000000000001" as="sourcePoint" />
            <mxPoint x="429.0199999999995" y="321.31999999999994" as="targetPoint" />
          </mxGeometry>
        </mxCell>
        <mxCell id="BBy9NSOws3LWDicbXZz5-79" value="" style="endArrow=none;html=2;rounded=0;exitX=1;exitY=0.5;exitDx=0;exitDy=0;entryX=1;entryY=0.5;entryDx=0;entryDy=0;entryPerimeter=0;" parent="1" source="BBy9NSOws3LWDicbXZz5-73" target="BBy9NSOws3LWDicbXZz5-88" edge="1">
          <mxGeometry relative="1" as="geometry">
            <mxPoint x="399.99999999999363" y="250.0000000000001" as="sourcePoint" />
            <mxPoint x="429.9999999999998" y="690" as="targetPoint" />
          </mxGeometry>
        </mxCell>
        <mxCell id="BBy9NSOws3LWDicbXZz5-83" value="&lt;span style=&quot;text-align: left;&quot;&gt;unvan&lt;/span&gt;" style="ellipse;whiteSpace=wrap;html=1;align=center;" parent="1" vertex="1">
          <mxGeometry x="240" y="460" width="150" height="60" as="geometry" />
        </mxCell>
        <mxCell id="BBy9NSOws3LWDicbXZz5-84" value="&lt;span style=&quot;text-align: left;&quot;&gt;tamdarmukellefiyet&lt;/span&gt;" style="ellipse;whiteSpace=wrap;html=1;align=center;" parent="1" vertex="1">
          <mxGeometry x="240" y="620" width="150" height="60" as="geometry" />
        </mxCell>
        <mxCell id="BBy9NSOws3LWDicbXZz5-88" value="" style="line;strokeWidth=3;direction=south;html=1;" parent="1" vertex="1">
          <mxGeometry x="450" y="90" width="20" height="640" as="geometry" />
        </mxCell>
        <mxCell id="BBy9NSOws3LWDicbXZz5-89" value="&lt;span style=&quot;text-align: left;&quot;&gt;vergino&lt;/span&gt;" style="ellipse;whiteSpace=wrap;html=1;align=center;" parent="1" vertex="1">
          <mxGeometry x="240" y="60" width="150" height="60" as="geometry" />
        </mxCell>
        <mxCell id="BBy9NSOws3LWDicbXZz5-90" value="&lt;span style=&quot;text-align: left;&quot;&gt;sirketturu&lt;/span&gt;" style="ellipse;whiteSpace=wrap;html=1;align=center;" parent="1" vertex="1">
          <mxGeometry x="240" y="540" width="150" height="60" as="geometry" />
        </mxCell>
        <mxCell id="BBy9NSOws3LWDicbXZz5-91" value="" style="endArrow=none;html=1;rounded=0;exitX=1;exitY=0.5;exitDx=0;exitDy=0;entryX=0;entryY=0.5;entryDx=0;entryDy=0;entryPerimeter=0;" parent="1" source="BBy9NSOws3LWDicbXZz5-89" target="BBy9NSOws3LWDicbXZz5-88" edge="1">
          <mxGeometry relative="1" as="geometry">
            <mxPoint x="399.99999999999363" y="190.0000000000001" as="sourcePoint" />
            <mxPoint x="470.8199999999997" y="219.36000000000013" as="targetPoint" />
          </mxGeometry>
        </mxCell>
        <mxCell id="BBy9NSOws3LWDicbXZz5-92" value="" style="endArrow=none;html=1;rounded=0;exitX=1;exitY=0.5;exitDx=0;exitDy=0;entryX=0.377;entryY=0.562;entryDx=0;entryDy=0;entryPerimeter=0;" parent="1" source="BBy9NSOws3LWDicbXZz5-69" target="BBy9NSOws3LWDicbXZz5-88" edge="1">
          <mxGeometry relative="1" as="geometry">
            <mxPoint x="399.99999999999363" y="270.0000000000001" as="sourcePoint" />
            <mxPoint x="469.9999999999998" y="300.0000000000001" as="targetPoint" />
          </mxGeometry>
        </mxCell>
        <mxCell id="BBy9NSOws3LWDicbXZz5-93" value="" style="endArrow=none;html=1;rounded=0;exitX=1;exitY=0.5;exitDx=0;exitDy=0;entryX=0.499;entryY=0.613;entryDx=0;entryDy=0;entryPerimeter=0;" parent="1" source="BBy9NSOws3LWDicbXZz5-72" target="BBy9NSOws3LWDicbXZz5-88" edge="1">
          <mxGeometry relative="1" as="geometry">
            <mxPoint x="399.99999999999363" y="350.0000000000001" as="sourcePoint" />
            <mxPoint x="468.75999999999976" y="366.6400000000001" as="targetPoint" />
          </mxGeometry>
        </mxCell>
        <mxCell id="BBy9NSOws3LWDicbXZz5-94" value="" style="endArrow=none;html=1;rounded=0;exitX=1;exitY=0.5;exitDx=0;exitDy=0;entryX=0.627;entryY=0.51;entryDx=0;entryDy=0;entryPerimeter=0;" parent="1" source="BBy9NSOws3LWDicbXZz5-83" target="BBy9NSOws3LWDicbXZz5-88" edge="1">
          <mxGeometry relative="1" as="geometry">
            <mxPoint x="399.99999999999363" y="430" as="sourcePoint" />
            <mxPoint x="459.9999999999998" y="438.5714285714289" as="targetPoint" />
          </mxGeometry>
        </mxCell>
        <mxCell id="BBy9NSOws3LWDicbXZz5-95" value="" style="endArrow=none;html=1;rounded=0;exitX=1;exitY=0.5;exitDx=0;exitDy=0;entryX=0.75;entryY=0.5;entryDx=0;entryDy=0;entryPerimeter=0;" parent="1" source="BBy9NSOws3LWDicbXZz5-90" target="BBy9NSOws3LWDicbXZz5-88" edge="1">
          <mxGeometry relative="1" as="geometry">
            <mxPoint x="399.99999999999363" y="510" as="sourcePoint" />
            <mxPoint x="471.84000000000015" y="520.6399999999999" as="targetPoint" />
          </mxGeometry>
        </mxCell>
        <mxCell id="BBy9NSOws3LWDicbXZz5-96" value="" style="endArrow=none;html=1;rounded=0;exitX=1;exitY=0.5;exitDx=0;exitDy=0;entryX=0.877;entryY=0.356;entryDx=0;entryDy=0;entryPerimeter=0;" parent="1" source="BBy9NSOws3LWDicbXZz5-84" target="BBy9NSOws3LWDicbXZz5-88" edge="1">
          <mxGeometry relative="1" as="geometry">
            <mxPoint x="399.99999999999363" y="590" as="sourcePoint" />
            <mxPoint x="460" y="650" as="targetPoint" />
          </mxGeometry>
        </mxCell>
        <mxCell id="BBy9NSOws3LWDicbXZz5-97" value="" style="endArrow=none;html=1;rounded=0;exitX=0.441;exitY=0.51;exitDx=0;exitDy=0;exitPerimeter=0;entryX=0;entryY=0.5;entryDx=0;entryDy=0;" parent="1" source="BBy9NSOws3LWDicbXZz5-88" target="BBy9NSOws3LWDicbXZz5-68" edge="1">
          <mxGeometry relative="1" as="geometry">
            <mxPoint x="600" y="280" as="sourcePoint" />
            <mxPoint x="610" y="372" as="targetPoint" />
          </mxGeometry>
        </mxCell>
        <mxCell id="BBy9NSOws3LWDicbXZz5-98" value="sicil_ortaklik" style="rounded=1;arcSize=10;whiteSpace=wrap;html=1;align=center;" parent="1" vertex="1">
          <mxGeometry x="1320" y="348" width="205" height="50" as="geometry" />
        </mxCell>
        <mxCell id="BBy9NSOws3LWDicbXZz5-99" value="&lt;div style=&quot;text-align: left;&quot;&gt;&lt;span style=&quot;background-color: initial;&quot;&gt;kitbit_turu&lt;/span&gt;&lt;/div&gt;" style="ellipse;whiteSpace=wrap;html=1;align=center;" parent="1" vertex="1">
          <mxGeometry x="1020" y="300" width="150" height="60" as="geometry" />
        </mxCell>
        <mxCell id="BBy9NSOws3LWDicbXZz5-100" value="&lt;div style=&quot;text-align: left;&quot;&gt;&lt;span style=&quot;background-color: initial;&quot;&gt;kitbit&lt;/span&gt;&lt;/div&gt;" style="ellipse;whiteSpace=wrap;html=1;align=center;" parent="1" vertex="1">
          <mxGeometry x="1020" y="220" width="150" height="60" as="geometry" />
        </mxCell>
        <mxCell id="BBy9NSOws3LWDicbXZz5-101" value="&lt;div style=&quot;text-align: left;&quot;&gt;&lt;span style=&quot;background-color: initial;&quot;&gt;vkn&lt;/span&gt;&lt;/div&gt;" style="ellipse;whiteSpace=wrap;html=1;align=center;" parent="1" vertex="1">
          <mxGeometry x="1020" y="140" width="150" height="60" as="geometry" />
        </mxCell>
        <mxCell id="BBy9NSOws3LWDicbXZz5-102" value="&lt;div style=&quot;text-align: left;&quot;&gt;&lt;span style=&quot;background-color: initial;&quot;&gt;uyruk&lt;/span&gt;&lt;/div&gt;" style="ellipse;whiteSpace=wrap;html=1;align=center;" parent="1" vertex="1">
          <mxGeometry x="1020" y="380" width="150" height="60" as="geometry" />
        </mxCell>
        <mxCell id="BBy9NSOws3LWDicbXZz5-103" value="&lt;div style=&quot;text-align: left;&quot;&gt;&lt;span style=&quot;background-color: initial;&quot;&gt;yonort_vergino&lt;/span&gt;&lt;/div&gt;" style="ellipse;whiteSpace=wrap;html=1;align=center;" parent="1" vertex="1">
          <mxGeometry x="1020" y="700" width="150" height="60" as="geometry" />
        </mxCell>
        <mxCell id="BBy9NSOws3LWDicbXZz5-104" value="" style="endArrow=none;html=1;rounded=0;exitX=1;exitY=0.5;exitDx=0;exitDy=0;entryX=0.109;entryY=0.548;entryDx=0;entryDy=0;entryPerimeter=0;" parent="1" source="BBy9NSOws3LWDicbXZz5-101" target="BBy9NSOws3LWDicbXZz5-109" edge="1">
          <mxGeometry relative="1" as="geometry">
            <mxPoint x="1490" y="560" as="sourcePoint" />
            <mxPoint x="1460" y="170" as="targetPoint" />
          </mxGeometry>
        </mxCell>
        <mxCell id="BBy9NSOws3LWDicbXZz5-105" value="" style="endArrow=none;html=1;rounded=0;exitX=1;exitY=0.5;exitDx=0;exitDy=0;entryX=0.222;entryY=0.5;entryDx=0;entryDy=0;entryPerimeter=0;" parent="1" source="BBy9NSOws3LWDicbXZz5-100" target="BBy9NSOws3LWDicbXZz5-109" edge="1">
          <mxGeometry relative="1" as="geometry">
            <mxPoint x="1179.9999999999936" y="250.0000000000001" as="sourcePoint" />
            <mxPoint x="1209.0199999999995" y="321.31999999999994" as="targetPoint" />
          </mxGeometry>
        </mxCell>
        <mxCell id="BBy9NSOws3LWDicbXZz5-106" value="" style="endArrow=none;html=2;rounded=0;exitX=1;exitY=0.5;exitDx=0;exitDy=0;entryX=0.827;entryY=0.357;entryDx=0;entryDy=0;entryPerimeter=0;" parent="1" source="BBy9NSOws3LWDicbXZz5-103" target="BBy9NSOws3LWDicbXZz5-109" edge="1">
          <mxGeometry relative="1" as="geometry">
            <mxPoint x="1179.9999999999936" y="250.0000000000001" as="sourcePoint" />
            <mxPoint x="1209.9999999999998" y="690" as="targetPoint" />
          </mxGeometry>
        </mxCell>
        <mxCell id="BBy9NSOws3LWDicbXZz5-107" value="&lt;div style=&quot;text-align: left;&quot;&gt;&lt;span style=&quot;background-color: initial;&quot;&gt;uyruk_ad&lt;/span&gt;&lt;/div&gt;" style="ellipse;whiteSpace=wrap;html=1;align=center;" parent="1" vertex="1">
          <mxGeometry x="1020" y="460" width="150" height="60" as="geometry" />
        </mxCell>
        <mxCell id="BBy9NSOws3LWDicbXZz5-108" value="&lt;div style=&quot;text-align: left;&quot;&gt;&lt;span style=&quot;background-color: initial;&quot;&gt;ulkeadi&lt;/span&gt;&lt;/div&gt;" style="ellipse;whiteSpace=wrap;html=1;align=center;" parent="1" vertex="1">
          <mxGeometry x="1020" y="620" width="150" height="60" as="geometry" />
        </mxCell>
        <mxCell id="BBy9NSOws3LWDicbXZz5-109" value="" style="line;strokeWidth=3;direction=south;html=1;" parent="1" vertex="1">
          <mxGeometry x="1230" y="90" width="20" height="890" as="geometry" />
        </mxCell>
        <mxCell id="BBy9NSOws3LWDicbXZz5-110" value="&lt;div style=&quot;text-align: left;&quot;&gt;&lt;span style=&quot;background-color: initial;&quot;&gt;tip&lt;/span&gt;&lt;/div&gt;" style="ellipse;whiteSpace=wrap;html=1;align=center;" parent="1" vertex="1">
          <mxGeometry x="1020" y="60" width="150" height="60" as="geometry" />
        </mxCell>
        <mxCell id="BBy9NSOws3LWDicbXZz5-111" value="&lt;div style=&quot;text-align: left;&quot;&gt;&lt;span style=&quot;background-color: initial;&quot;&gt;ulkekodu&lt;/span&gt;&lt;/div&gt;" style="ellipse;whiteSpace=wrap;html=1;align=center;" parent="1" vertex="1">
          <mxGeometry x="1020" y="540" width="150" height="60" as="geometry" />
        </mxCell>
        <mxCell id="BBy9NSOws3LWDicbXZz5-112" value="" style="endArrow=none;html=1;rounded=0;exitX=1;exitY=0.5;exitDx=0;exitDy=0;entryX=0;entryY=0.5;entryDx=0;entryDy=0;entryPerimeter=0;" parent="1" source="BBy9NSOws3LWDicbXZz5-110" target="BBy9NSOws3LWDicbXZz5-109" edge="1">
          <mxGeometry relative="1" as="geometry">
            <mxPoint x="1179.9999999999936" y="190.0000000000001" as="sourcePoint" />
            <mxPoint x="1250.8199999999997" y="219.36000000000013" as="targetPoint" />
          </mxGeometry>
        </mxCell>
        <mxCell id="BBy9NSOws3LWDicbXZz5-113" value="" style="endArrow=none;html=1;rounded=0;exitX=1;exitY=0.5;exitDx=0;exitDy=0;entryX=0.336;entryY=0.643;entryDx=0;entryDy=0;entryPerimeter=0;" parent="1" source="BBy9NSOws3LWDicbXZz5-99" target="BBy9NSOws3LWDicbXZz5-109" edge="1">
          <mxGeometry relative="1" as="geometry">
            <mxPoint x="1179.9999999999936" y="270.0000000000001" as="sourcePoint" />
            <mxPoint x="1240" y="330" as="targetPoint" />
          </mxGeometry>
        </mxCell>
        <mxCell id="BBy9NSOws3LWDicbXZz5-114" value="" style="endArrow=none;html=1;rounded=0;exitX=1;exitY=0.5;exitDx=0;exitDy=0;entryX=0.443;entryY=0.595;entryDx=0;entryDy=0;entryPerimeter=0;" parent="1" source="BBy9NSOws3LWDicbXZz5-102" target="BBy9NSOws3LWDicbXZz5-109" edge="1">
          <mxGeometry relative="1" as="geometry">
            <mxPoint x="1179.9999999999936" y="350.0000000000001" as="sourcePoint" />
            <mxPoint x="1248.7599999999998" y="366.6400000000001" as="targetPoint" />
          </mxGeometry>
        </mxCell>
        <mxCell id="BBy9NSOws3LWDicbXZz5-115" value="" style="endArrow=none;html=1;rounded=0;exitX=1;exitY=0.5;exitDx=0;exitDy=0;entryX=0.556;entryY=0.5;entryDx=0;entryDy=0;entryPerimeter=0;" parent="1" source="BBy9NSOws3LWDicbXZz5-107" target="BBy9NSOws3LWDicbXZz5-109" edge="1">
          <mxGeometry relative="1" as="geometry">
            <mxPoint x="1179.9999999999936" y="430" as="sourcePoint" />
            <mxPoint x="1239.9999999999998" y="438.5714285714289" as="targetPoint" />
          </mxGeometry>
        </mxCell>
        <mxCell id="BBy9NSOws3LWDicbXZz5-116" value="" style="endArrow=none;html=1;rounded=0;exitX=1;exitY=0.5;exitDx=0;exitDy=0;entryX=0.667;entryY=0.595;entryDx=0;entryDy=0;entryPerimeter=0;" parent="1" source="BBy9NSOws3LWDicbXZz5-111" target="BBy9NSOws3LWDicbXZz5-109" edge="1">
          <mxGeometry relative="1" as="geometry">
            <mxPoint x="1179.9999999999936" y="510" as="sourcePoint" />
            <mxPoint x="1251.8400000000001" y="520.6399999999999" as="targetPoint" />
          </mxGeometry>
        </mxCell>
        <mxCell id="BBy9NSOws3LWDicbXZz5-117" value="" style="endArrow=none;html=1;rounded=0;exitX=1;exitY=0.5;exitDx=0;exitDy=0;entryX=0.782;entryY=0.643;entryDx=0;entryDy=0;entryPerimeter=0;" parent="1" source="BBy9NSOws3LWDicbXZz5-108" target="BBy9NSOws3LWDicbXZz5-109" edge="1">
          <mxGeometry relative="1" as="geometry">
            <mxPoint x="1179.9999999999936" y="590" as="sourcePoint" />
            <mxPoint x="1240" y="650" as="targetPoint" />
          </mxGeometry>
        </mxCell>
        <mxCell id="BBy9NSOws3LWDicbXZz5-118" value="" style="endArrow=none;html=1;rounded=0;exitX=0.397;exitY=0.595;exitDx=0;exitDy=0;exitPerimeter=0;entryX=0;entryY=0.5;entryDx=0;entryDy=0;" parent="1" source="BBy9NSOws3LWDicbXZz5-109" target="BBy9NSOws3LWDicbXZz5-98" edge="1">
          <mxGeometry relative="1" as="geometry">
            <mxPoint x="1360" y="280" as="sourcePoint" />
            <mxPoint x="1370" y="372" as="targetPoint" />
          </mxGeometry>
        </mxCell>
        <mxCell id="MaY830GA1Fcl8G5nq0bW-2" value="yonort_giristarihi" style="ellipse;whiteSpace=wrap;html=1;align=center;" vertex="1" parent="1">
          <mxGeometry x="1020" y="780" width="150" height="60" as="geometry" />
        </mxCell>
        <mxCell id="MaY830GA1Fcl8G5nq0bW-3" value="yonort_cikistarihi" style="ellipse;whiteSpace=wrap;html=1;align=center;" vertex="1" parent="1">
          <mxGeometry x="1020" y="870" width="150" height="60" as="geometry" />
        </mxCell>
        <mxCell id="MaY830GA1Fcl8G5nq0bW-5" value="orthisse" style="ellipse;whiteSpace=wrap;html=1;align=center;" vertex="1" parent="1">
          <mxGeometry x="1020" y="960" width="150" height="60" as="geometry" />
        </mxCell>
        <mxCell id="MaY830GA1Fcl8G5nq0bW-6" value="" style="endArrow=none;html=2;rounded=0;entryX=0.89;entryY=0.548;entryDx=0;entryDy=0;entryPerimeter=0;exitX=1;exitY=1;exitDx=0;exitDy=0;" edge="1" parent="1" source="MaY830GA1Fcl8G5nq0bW-2" target="BBy9NSOws3LWDicbXZz5-109">
          <mxGeometry relative="1" as="geometry">
            <mxPoint x="1180" y="740" as="sourcePoint" />
            <mxPoint x="1248.1" y="826.5200000000002" as="targetPoint" />
          </mxGeometry>
        </mxCell>
        <mxCell id="MaY830GA1Fcl8G5nq0bW-8" style="edgeStyle=elbowEdgeStyle;rounded=0;orthogonalLoop=1;jettySize=auto;html=1;exitX=1;exitY=0.5;exitDx=0;exitDy=0;exitPerimeter=0;" edge="1" parent="1" source="BBy9NSOws3LWDicbXZz5-109" target="BBy9NSOws3LWDicbXZz5-109">
          <mxGeometry relative="1" as="geometry" />
        </mxCell>
        <mxCell id="MaY830GA1Fcl8G5nq0bW-9" value="" style="endArrow=none;html=2;rounded=0;entryX=0.946;entryY=0.5;entryDx=0;entryDy=0;entryPerimeter=0;exitX=1;exitY=0.5;exitDx=0;exitDy=0;" edge="1" parent="1" source="MaY830GA1Fcl8G5nq0bW-3" target="BBy9NSOws3LWDicbXZz5-109">
          <mxGeometry relative="1" as="geometry">
            <mxPoint x="1157.7786580023972" y="841.3144580394296" as="sourcePoint" />
            <mxPoint x="1249.04" y="892.1000000000001" as="targetPoint" />
          </mxGeometry>
        </mxCell>
        <mxCell id="MaY830GA1Fcl8G5nq0bW-10" value="" style="endArrow=none;html=2;rounded=0;entryX=1;entryY=0.5;entryDx=0;entryDy=0;entryPerimeter=0;exitX=1;exitY=0.5;exitDx=0;exitDy=0;" edge="1" parent="1" source="MaY830GA1Fcl8G5nq0bW-5" target="BBy9NSOws3LWDicbXZz5-109">
          <mxGeometry relative="1" as="geometry">
            <mxPoint x="1180" y="910" as="sourcePoint" />
            <mxPoint x="1250" y="941.94" as="targetPoint" />
          </mxGeometry>
        </mxCell>
        <mxCell id="MaY830GA1Fcl8G5nq0bW-39" value="sicil_ortaklik" style="rounded=1;arcSize=10;whiteSpace=wrap;html=1;align=center;" vertex="1" parent="1">
          <mxGeometry x="1940" y="348" width="205" height="50" as="geometry" />
        </mxCell>
        <mxCell id="MaY830GA1Fcl8G5nq0bW-40" value="&lt;div style=&quot;text-align: left;&quot;&gt;&lt;span style=&quot;background-color: initial;&quot;&gt;kitbit_turu&lt;/span&gt;&lt;/div&gt;" style="ellipse;whiteSpace=wrap;html=1;align=center;" vertex="1" parent="1">
          <mxGeometry x="1640" y="300" width="150" height="60" as="geometry" />
        </mxCell>
        <mxCell id="MaY830GA1Fcl8G5nq0bW-41" value="&lt;div style=&quot;text-align: left;&quot;&gt;&lt;span style=&quot;background-color: initial;&quot;&gt;kitbit&lt;/span&gt;&lt;/div&gt;" style="ellipse;whiteSpace=wrap;html=1;align=center;" vertex="1" parent="1">
          <mxGeometry x="1640" y="220" width="150" height="60" as="geometry" />
        </mxCell>
        <mxCell id="MaY830GA1Fcl8G5nq0bW-42" value="&lt;div style=&quot;text-align: left;&quot;&gt;&lt;span style=&quot;background-color: initial;&quot;&gt;vkn&lt;/span&gt;&lt;/div&gt;" style="ellipse;whiteSpace=wrap;html=1;align=center;" vertex="1" parent="1">
          <mxGeometry x="1640" y="140" width="150" height="60" as="geometry" />
        </mxCell>
        <mxCell id="MaY830GA1Fcl8G5nq0bW-43" value="&lt;div style=&quot;text-align: left;&quot;&gt;&lt;span style=&quot;background-color: initial;&quot;&gt;uyruk&lt;/span&gt;&lt;/div&gt;" style="ellipse;whiteSpace=wrap;html=1;align=center;" vertex="1" parent="1">
          <mxGeometry x="1640" y="380" width="150" height="60" as="geometry" />
        </mxCell>
        <mxCell id="MaY830GA1Fcl8G5nq0bW-44" value="&lt;div style=&quot;text-align: left;&quot;&gt;&lt;span style=&quot;background-color: initial;&quot;&gt;yonort_vergino&lt;/span&gt;&lt;/div&gt;" style="ellipse;whiteSpace=wrap;html=1;align=center;" vertex="1" parent="1">
          <mxGeometry x="1640" y="700" width="150" height="60" as="geometry" />
        </mxCell>
        <mxCell id="MaY830GA1Fcl8G5nq0bW-48" value="&lt;div style=&quot;text-align: left;&quot;&gt;&lt;span style=&quot;background-color: initial;&quot;&gt;uyruk_ad&lt;/span&gt;&lt;/div&gt;" style="ellipse;whiteSpace=wrap;html=1;align=center;" vertex="1" parent="1">
          <mxGeometry x="1640" y="460" width="150" height="60" as="geometry" />
        </mxCell>
        <mxCell id="MaY830GA1Fcl8G5nq0bW-49" value="&lt;div style=&quot;text-align: left;&quot;&gt;&lt;span style=&quot;background-color: initial;&quot;&gt;ulkeadi&lt;/span&gt;&lt;/div&gt;" style="ellipse;whiteSpace=wrap;html=1;align=center;" vertex="1" parent="1">
          <mxGeometry x="1640" y="620" width="150" height="60" as="geometry" />
        </mxCell>
        <mxCell id="MaY830GA1Fcl8G5nq0bW-50" value="" style="line;strokeWidth=3;direction=south;html=1;" vertex="1" parent="1">
          <mxGeometry x="1850" y="90" width="20" height="1250" as="geometry" />
        </mxCell>
        <mxCell id="MaY830GA1Fcl8G5nq0bW-51" value="&lt;div style=&quot;text-align: left;&quot;&gt;&lt;span style=&quot;background-color: initial;&quot;&gt;tip&lt;/span&gt;&lt;/div&gt;" style="ellipse;whiteSpace=wrap;html=1;align=center;" vertex="1" parent="1">
          <mxGeometry x="1640" y="60" width="150" height="60" as="geometry" />
        </mxCell>
        <mxCell id="MaY830GA1Fcl8G5nq0bW-52" value="&lt;div style=&quot;text-align: left;&quot;&gt;&lt;span style=&quot;background-color: initial;&quot;&gt;ulkekodu&lt;/span&gt;&lt;/div&gt;" style="ellipse;whiteSpace=wrap;html=1;align=center;" vertex="1" parent="1">
          <mxGeometry x="1640" y="540" width="150" height="60" as="geometry" />
        </mxCell>
        <mxCell id="MaY830GA1Fcl8G5nq0bW-59" value="" style="endArrow=none;html=1;rounded=0;exitX=0.397;exitY=0.595;exitDx=0;exitDy=0;exitPerimeter=0;entryX=0;entryY=0.5;entryDx=0;entryDy=0;" edge="1" parent="1" source="MaY830GA1Fcl8G5nq0bW-50" target="MaY830GA1Fcl8G5nq0bW-39">
          <mxGeometry relative="1" as="geometry">
            <mxPoint x="1980" y="280" as="sourcePoint" />
            <mxPoint x="1990" y="372" as="targetPoint" />
          </mxGeometry>
        </mxCell>
        <mxCell id="MaY830GA1Fcl8G5nq0bW-60" value="yonort_giristarihi" style="ellipse;whiteSpace=wrap;html=1;align=center;" vertex="1" parent="1">
          <mxGeometry x="1640" y="780" width="150" height="60" as="geometry" />
        </mxCell>
        <mxCell id="MaY830GA1Fcl8G5nq0bW-61" value="yonort_cikistarihi" style="ellipse;whiteSpace=wrap;html=1;align=center;" vertex="1" parent="1">
          <mxGeometry x="1640" y="870" width="150" height="60" as="geometry" />
        </mxCell>
        <mxCell id="MaY830GA1Fcl8G5nq0bW-62" value="orthisse" style="ellipse;whiteSpace=wrap;html=1;align=center;" vertex="1" parent="1">
          <mxGeometry x="1640" y="960" width="150" height="60" as="geometry" />
        </mxCell>
        <mxCell id="MaY830GA1Fcl8G5nq0bW-64" style="edgeStyle=elbowEdgeStyle;rounded=0;orthogonalLoop=1;jettySize=auto;html=1;exitX=1;exitY=0.5;exitDx=0;exitDy=0;exitPerimeter=0;" edge="1" parent="1" source="MaY830GA1Fcl8G5nq0bW-50" target="MaY830GA1Fcl8G5nq0bW-50">
          <mxGeometry relative="1" as="geometry" />
        </mxCell>
        <mxCell id="MaY830GA1Fcl8G5nq0bW-67" value="&lt;div style=&quot;text-align: left;&quot;&gt;&lt;span style=&quot;background-color: initial;&quot;&gt;yonort_vergino&lt;/span&gt;&lt;/div&gt;" style="ellipse;whiteSpace=wrap;html=1;align=center;" vertex="1" parent="1">
          <mxGeometry x="1640" y="1040" width="150" height="60" as="geometry" />
        </mxCell>
        <mxCell id="MaY830GA1Fcl8G5nq0bW-68" value="yonort_giristarihi" style="ellipse;whiteSpace=wrap;html=1;align=center;" vertex="1" parent="1">
          <mxGeometry x="1640" y="1120" width="150" height="60" as="geometry" />
        </mxCell>
        <mxCell id="MaY830GA1Fcl8G5nq0bW-69" value="yonort_cikistarihi" style="ellipse;whiteSpace=wrap;html=1;align=center;" vertex="1" parent="1">
          <mxGeometry x="1640" y="1210" width="150" height="60" as="geometry" />
        </mxCell>
        <mxCell id="MaY830GA1Fcl8G5nq0bW-70" value="orthisse" style="ellipse;whiteSpace=wrap;html=1;align=center;" vertex="1" parent="1">
          <mxGeometry x="1640" y="1300" width="150" height="60" as="geometry" />
        </mxCell>
      </root>
    </mxGraphModel>
  </diagram>
</mxfile>
